<?xml version="1.0" encoding="UTF-8"?><svg id="Livello_2" xmlns="http://www.w3.org/2000/svg" viewBox="0 0 216.3 32.58"><defs><style>.cls-1,.cls-2{fill:#007b95;}.cls-2{font-family:Blacksword, Blacksword;font-size:22.14px;}</style></defs><g id="PAGINA_1"><text class="cls-2" transform="translate(67.46 21.09)"><tspan x="0" y="0">cuopperia</tspan></text><g><path class="cls-1" d="M203.01,17.44l-6.92-6.92,6.92-6.92,6.92,6.92-6.92,6.92Zm-5.83-6.92l5.83,5.83,5.83-5.83-5.83-5.83-5.83,5.83Z"/><path class="cls-1" d="M209.38,17.44l-6.92-6.92,6.92-6.92,6.92,6.92-6.92,6.92Zm-5.83-6.92l5.83,5.83,5.83-5.83-5.83-5.83-5.83,5.83Z"/><path class="cls-1" d="M202.95,30.33l-6.92-6.92,6.92-6.92,6.92,6.92-6.92,6.92Zm-5.83-6.92l5.83,5.83,5.83-5.83-5.83-5.83-5.83,5.83Z"/><path class="cls-1" d="M209.31,30.33l-6.92-6.92,6.92-6.92,6.92,6.92-6.92,6.92Zm-5.83-6.92l5.83,5.83,5.83-5.83-5.83-5.83-5.83,5.83Z"/></g><g><path class="cls-1" d="M6.99,17.44L.06,10.51,6.99,3.59l6.92,6.92-6.92,6.92ZM1.16,10.51l5.83,5.83,5.83-5.83L6.99,4.69,1.16,10.51Z"/><path class="cls-1" d="M13.35,17.44l-6.92-6.92L13.35,3.59l6.92,6.92-6.92,6.92Zm-5.83-6.92l5.83,5.83,5.83-5.83-5.83-5.83-5.83,5.83Z"/><path class="cls-1" d="M6.92,30.33L0,23.41l6.92-6.92,6.92,6.92-6.92,6.92ZM1.1,23.41l5.83,5.83,5.83-5.83-5.83-5.83L1.1,23.41Z"/><path class="cls-1" d="M13.29,30.33l-6.92-6.92,6.92-6.92,6.92,6.92-6.92,6.92Zm-5.83-6.92l5.83,5.83,5.83-5.83-5.83-5.83-5.83,5.83Z"/></g></g></svg>