<?xml version="1.0" encoding="UTF-8"?><svg id="Livello_2" xmlns="http://www.w3.org/2000/svg" viewBox="0 0 179.44 54.77"><defs><style>.cls-1{fill:#fff;}</style></defs><g id="COPERTINA"><g><path class="cls-1" d="M42.12,18.57c-1.37,0-2.21-1.74-2.21-3.37,0-1.26,2.47-3.58,3-3.58,.1,0-1.47,1.95-1.16,2.37,3.58,0,11.89-4.68,11.89-8.94,0-2.37-2.05-3.74-5.31-3.74C32.12,1.32,3.76,28.78,4.92,43.46c.37,4.42,3.63,5.63,7.68,5.63,9.89,0,25.99-8.89,38.46-18.99,.05-.05,.63,.21,.42,.32-9.26,9.05-29.1,22.41-40.62,22.15-5.63-.11-10.52-2.58-10.84-9C-1.03,25.15,30.07,0,47.8,0c4.58,0,7.79,1.95,7.79,6,0,5.26-8.31,12.58-13.47,12.58Z"/><path class="cls-1" d="M61.48,29.83c-5.31,5.42-12.36,13-15.52,13.63h-.42c-.84,0-2.47-1.42-2.47-2.68,0-2.26,2.89-7.58,5.89-11.73,1.84-2.58,4.05-5.1,5.37-6.16,.26-.26,.58-.32,.74-.32,1.26,0,3.31,2.05,3.31,3.42,0,.21-.21-.05-.68-.11-.79-.11-3,2.63-4.79,4.95-2.68,3.53-5.31,8.1-5.31,9.63,2.53-1.05,7.89-5.79,10.42-8.21,2.74-2.68,6.63-7.26,9.63-9.58,.26-.21,.53-.26,.74-.26,1.26,0,3.26,2.05,3.26,3.37,0,.21-.16-.05-.63-.11-.37,0-1.05,.47-1.74,1.21-.79,.84-2.26,2.74-4,5.05-2.63,3.53-4.58,7.26-4.58,8.73,3.31-1,10.79-8.16,14-11.21,.32-.26,.58,.16,.42,.32-4.58,5-13.15,13.79-16.31,13.79-.26,0-.58-.11-.84-.32-.84-.42-1.89-1.63-1.89-2.58,0-.53,.32-1.47,.58-2.26,.89-2.42,2.89-6.16,4.84-8.58Z"/><path class="cls-1" d="M74.84,43.78c-1.05,.05-2.05-1.37-2.1-2.32-.11-1.47,2-4,3.58-4.16,1.05-.05,3.26,1,3.63,2-1.79,.05-4.53,4.42-5.1,4.47Z"/><path class="cls-1" d="M125.93,21.15c8.79-2.89,22.57-9.58,23.36-13.73,.68-3.84-7-5.37-9.79-5.52-11.68-.74-28.89,8.42-29.15,13.68-.1,1.1,.26,2.26,1.79,2.58,0,.05-.53,.26-1.16,.26-2.53,0-4.1-1.58-3.79-4.16C107.88,8.52,119.62,.05,135.72,.05c.95,0,1.89,.05,2.89,.11,5.63,.37,13.1,3,12.73,9.16-.42,7.31-13.21,11.1-16.94,11.94,.26-.05,1,0,1.79,.05,4.53,.37,12.21,2.37,12,7.94-.42,13.94-37.94,25.52-54.09,25.52-1.05,0-2.05-.05-2.95-.16-4.26-.53-7.47-2.16-7.21-6.1,.42-7.37,17.94-15.68,21.84-16.21,.05,.05,0,.05-.37,.21-5.58,2.58-19.31,10.47-19.68,16.1-.11,1.95,3.79,2.26,5.21,2.37,.63,.05,1.32,.05,2,.05,17.47,0,51.35-14.42,52.14-23.57,.26-3.53-5.95-4.68-9.79-4.95-.68-.05-1.32-.05-2-.05-3.16,0-6.31,.47-9.68,1.26-3,3.42-10.63,11.84-10.63,13.68,0,.16,.21,.26,.42,.26,.79,.05,2.89-.68,3.47-.95-1,.95-3.47,2.58-4.58,2.58-.89,0-1.68-.42-1.63-1.79,.1-4.37,13.79-23.47,22.89-29.99,.95-.63,1.74-.89,2.16-.84,3,.26,4.84,3.47,3.95,2.79-.58-.32-1.47,0-2.42,.63-3.95,2.84-7.52,6.89-11.31,11.05Z"/><path class="cls-1" d="M169.55,23.31c-9.52,0-20.52,17.73-17.57,18.99,2.95,1.21,10.47-7.21,14-12.58-.26-.47-.79-2.05-.58-2.58,.16-.53,1.74-2.1,2.42-2.16,.53-.05,1.1,.37,1.21,.53,1,1.63,2.26,2.84,4.37,2.68,3.53-.32,5.47-2.37,6.05-2.32-.26,.74-2.37,2.47-4.95,3.31-1.16,.37-2.26,.47-3.1,.47-.79,0-1.32-.11-1.58-.21-1.42,7-12.31,14.57-17.89,14.26-2.42-.16-4-2.16-4-4.16,0-8.58,11.52-17.15,19.84-17.15,2,0,2.84,.58,3.21,.89,.26,.16,.1,.16-.11,.16-.53-.05-.95-.16-1.32-.16Zm8.21-3.79c.16,0-.26,.63-2.31,.63-6.63,0-12.58-4-12.58-5.89,0-1,2.53-2.21,3.74-2.21,.37,0,0,.16,0,.68,0,2,5.63,6.79,11.15,6.79Z"/></g></g></svg>