<svg xmlns="http://www.w3.org/2000/svg" viewBox="0 0 216.3 26.74"><defs><style>.cls-1{fill:#007b95;}</style></defs><g id="Livello_2" data-name="Livello 2"><g id="PAGINA_4" data-name="PAGINA 4"><path class="cls-1" d="M7,13.85.06,6.92,7,0l6.92,6.92ZM1.16,6.92,7,12.75l5.82-5.83L7,1.1Z"/><path class="cls-1" d="M13.35,13.85,6.43,6.92,13.35,0l6.92,6.92ZM7.52,6.92l5.83,5.83,5.83-5.83L13.35,1.1Z"/><path class="cls-1" d="M6.92,26.74,0,19.82l6.92-6.93,6.93,6.93ZM1.1,19.82l5.82,5.82,5.83-5.82L6.92,14Z"/><path class="cls-1" d="M13.29,26.74,6.36,19.82l6.93-6.93,6.92,6.93ZM7.46,19.82l5.83,5.82,5.82-5.82L13.29,14Z"/><path class="cls-1" d="M203,13.85l-6.92-6.93L203,0l6.93,6.92Zm-5.82-6.93L203,12.75l5.83-5.83L203,1.1Z"/><path class="cls-1" d="M209.38,13.85l-6.93-6.93L209.38,0l6.92,6.92Zm-5.83-6.93,5.83,5.83,5.82-5.83L209.38,1.1Z"/><path class="cls-1" d="M203,26.74,196,19.82,203,12.89l6.92,6.93Zm-5.83-6.92L203,25.64l5.82-5.82L203,14Z"/><path class="cls-1" d="M209.31,26.74l-6.92-6.92,6.92-6.93,6.92,6.93Zm-5.83-6.92,5.83,5.82,5.83-5.82L209.31,14Z"/><path class="cls-1" d="M68.58,13.58c1.72-2.13,5.62-5.14,6.82-4.72.26.11,1,1,1,1.26,0,2-4.3,7.38-7.35,7.38-.87,0-1.84-.58-1.84-1.31,0-.11.09-.15.09-.09a.91.91,0,0,0,.84.64c2.23,0,6.26-5.89,6.46-7a17.6,17.6,0,0,0-7.1,5.69c-.65.93-1.55,2.21-.56,2.32a.76.76,0,0,1-.71-.11,2,2,0,0,1-.79-.88c-.07-.18,0-.85.62-2.31a62.26,62.26,0,0,1,6.26-9.83,17,17,0,0,1,2.68-3,1.79,1.79,0,0,1,.84-.4c1.24,0,2.11,1.3,1.69,1.06C77,2,76,3,74.62,4.68A54.54,54.54,0,0,0,68.58,13.58Z"/><path class="cls-1" d="M81.46,13.27c-.66.66-5,4.38-5.91,4.38a.76.76,0,0,1-.2-.06,2.35,2.35,0,0,1-1-1.49c0-2.41,5.07-7.35,9.14-7.35.84,0,2,.36,2,1.4a1.84,1.84,0,0,1-.42,1s-.09,0-.07,0a1.57,1.57,0,0,0,.25-.79.9.9,0,0,0-1.09-.95,8.32,8.32,0,0,0-4.34,2.21c-2.1,1.79-3.76,4.58-3.56,4.69,0,0,.08,0,.15,0a33.67,33.67,0,0,0,5-3.45,25.89,25.89,0,0,1,2.39-2.06c.45-.22,1.2,1,1.11,1.26-.11-.22-2.1,2.19-2.77,3.61a2.34,2.34,0,0,0-.22.75c1.4-.39,4.56-3.43,5.94-4.71.11-.11.22.06.15.13-1.93,2.1-5.53,5.8-6.86,5.8a.78.78,0,0,1-.38-.13,1.49,1.49,0,0,1-.73-1,3.62,3.62,0,0,1,.18-.82A9.16,9.16,0,0,1,81.46,13.27Z"/><path class="cls-1" d="M87.64,16.7c2-.22,5.75-3.21,7.9-5,.07,0,.22,0,.16.11-1.91,1.79-6.18,5.8-8.93,5.8a1.79,1.79,0,0,1-1.61-1.37,2,2,0,0,1,0-.67,8.51,8.51,0,0,1,2.46-3.91c1.82-1.8,4-2.95,5.62-2.95a1.69,1.69,0,0,1,1.27,1.09c0,.84-1.09,1.66-1.82,2.21,0,0-.16,0-.11-.07.35-.35,1.26-2.1,1.08-2.25-2.37,0-6.7,5-6.7,6.59C87,16.68,87.44,16.72,87.64,16.7Z"/><path class="cls-1" d="M95.32,16.7c2-.22,5.76-3.21,7.9-5,.07,0,.22,0,.16.11-1.91,1.79-6.18,5.8-8.92,5.8a1.79,1.79,0,0,1-1.62-1.37,2,2,0,0,1,0-.67,8.51,8.51,0,0,1,2.46-3.91c1.82-1.8,4-2.95,5.63-2.95a1.69,1.69,0,0,1,1.26,1.09c0,.84-1.09,1.66-1.82,2.21,0,0-.15,0-.11-.07.35-.35,1.26-2.1,1.09-2.25-2.37,0-6.71,5-6.71,6.59C94.68,16.68,95.12,16.72,95.32,16.7Z"/><path class="cls-1" d="M107.16,13.27c-.66.66-5,4.38-5.91,4.38a.89.89,0,0,1-.2-.06,2.35,2.35,0,0,1-1-1.49c0-2.41,5.07-7.35,9.14-7.35.84,0,2,.36,2,1.4a1.84,1.84,0,0,1-.42,1s-.09,0-.07,0a1.57,1.57,0,0,0,.25-.79.89.89,0,0,0-1.09-.95,8.32,8.32,0,0,0-4.34,2.21c-2.1,1.79-3.76,4.58-3.56,4.69a.14.14,0,0,0,.15,0,33.67,33.67,0,0,0,5-3.45,24.79,24.79,0,0,1,2.4-2.06c.44-.22,1.19,1,1.1,1.26-.11-.22-2.1,2.19-2.76,3.61a2.17,2.17,0,0,0-.23.75c1.4-.39,4.56-3.43,5.94-4.71.11-.11.22.06.15.13-1.92,2.1-5.53,5.8-6.86,5.8a.78.78,0,0,1-.38-.13,1.49,1.49,0,0,1-.73-1,3.62,3.62,0,0,1,.18-.82A9.16,9.16,0,0,1,107.16,13.27Z"/><path class="cls-1" d="M118.54,3.68a12.58,12.58,0,0,1,1.84-2,1.65,1.65,0,0,1,.82-.45c1.24-.06,2.12,1.22,1.7,1-.77-.36-2.21,1.72-3.18,2.92s-1.86,2.52-3,4.14a47.39,47.39,0,0,0-4.12,7.15c1,.11,4.63-3.5,5.93-4.69.14-.11.23.06.16.13-1.09,1.24-4.94,5.27-6.27,5.76a.79.79,0,0,1-.71-.09,2.42,2.42,0,0,1-.79-.89.52.52,0,0,1-.07-.33c0-.66,1-2.81,3.72-7C116,7.11,117.39,5.19,118.54,3.68Z"/><path class="cls-1" d="M117.85,16.26c0,.26.18.42.67.42,1.62,0,5.67-3.08,7.9-4.94.07,0,.22.07.16.13-1.66,1.55-6.07,5.78-9,5.78A1.78,1.78,0,0,1,116,16.26a4.23,4.23,0,0,1,.3-1.46A11.11,11.11,0,0,1,119.36,11a8.91,8.91,0,0,1,4.76-2.22c.33,0,1.35.51,1.35,1.13,0,1.37-4.25,4.56-6.73,4.63A3.75,3.75,0,0,0,117.85,16.26ZM119,14.07c1.92-.23,5.6-3.81,5.73-4.65A13.14,13.14,0,0,0,119,14.07Z"/><path class="cls-1" d="M128.59,8.91a.51.51,0,0,1,.31-.11,1.83,1.83,0,0,1,1.37,1.41c0,.09-.06,0-.24,0-.33,0-1.11.84-1.77,1.73a28,28,0,0,0-1.84,2.65,28.16,28.16,0,0,1,5.29-4.76,5.12,5.12,0,0,1,2-1c.24,0,1.15.93,1,1.11a14,14,0,0,0-3,3.85c1.06-.09,2.59-1.08,4-2.3,0,0,.16-.05.18,0-.4.53-3.06,3-4.58,3-.4,0-1.07-.78-1.07-1a5.57,5.57,0,0,1,1.29-2.57,17,17,0,0,0-4.59,3.74c-1.13,1.22-2.45,3.17-2,3.39-.64.15-1.17-.53-1.33-1.15a2.15,2.15,0,0,1,.34-1.13,26.31,26.31,0,0,1,2.43-4.05A15.18,15.18,0,0,1,128.59,8.91Z"/><path class="cls-1" d="M133.46,17.63a1.52,1.52,0,0,1-.91-1.06c0-1.29,3.21-6.11,4.63-7.24a.47.47,0,0,1,.33-.14,1.94,1.94,0,0,1,1.4,1.44c0,.09-.11,0-.29,0-.91-.09-3.94,5-4.21,5.87,1.35-.36,4.59-3.44,5.94-4.74.15-.11.26.06.2.13-1.93,2.08-5.45,5.69-6.82,5.8A1.32,1.32,0,0,1,133.46,17.63Zm7.4-11.11c.2.22.33.55.24.55a.64.64,0,0,0-.46,0A6.84,6.84,0,0,0,139,8.53c-.3.4-.77-.07-.79-.46a3.25,3.25,0,0,1,1.39-2.26A1.64,1.64,0,0,1,140.86,6.52Z"/><path class="cls-1" d="M144.49,13.27c-.67.66-5,4.38-5.91,4.38a.66.66,0,0,1-.2-.06,2.36,2.36,0,0,1-1-1.49c0-2.41,5.07-7.35,9.15-7.35.84,0,1.95.36,1.95,1.4a1.78,1.78,0,0,1-.43,1s-.08,0-.06,0a1.57,1.57,0,0,0,.24-.79.89.89,0,0,0-1.08-.95,8.29,8.29,0,0,0-4.34,2.21c-2.11,1.79-3.77,4.58-3.57,4.69a.15.15,0,0,0,.16,0,33.67,33.67,0,0,0,5-3.45,25.89,25.89,0,0,1,2.39-2.06c.44-.22,1.2,1,1.11,1.26-.11-.22-2.11,2.19-2.77,3.61a2.34,2.34,0,0,0-.22.75c1.39-.39,4.56-3.43,5.93-4.71.11-.11.22.06.16.13-1.93,2.1-5.54,5.8-6.87,5.8a.72.72,0,0,1-.37-.13,1.49,1.49,0,0,1-.73-1,3.52,3.52,0,0,1,.17-.82A9.48,9.48,0,0,1,144.49,13.27Z"/></g></g></svg>