<svg xmlns="http://www.w3.org/2000/svg" viewBox="0 0 216.3 27.83"><defs><style>.cls-1{fill:#007b95;}</style></defs><g id="Livello_2" data-name="Livello 2"><g id="PAGINA_1" data-name="PAGINA 1"><path class="cls-1" d="M69.66,16.7c2-.22,5.75-3.21,7.9-5,.07,0,.22,0,.16.11-1.91,1.79-6.18,5.8-8.93,5.8a1.78,1.78,0,0,1-1.61-1.37,1.59,1.59,0,0,1,0-.67,8.51,8.51,0,0,1,2.46-3.91c1.81-1.8,4-2.95,5.62-2.95a1.67,1.67,0,0,1,1.26,1.09c0,.84-1.08,1.66-1.81,2.21,0,0-.16,0-.11-.07.35-.35,1.26-2.1,1.08-2.25-2.37,0-6.71,5-6.71,6.59C69,16.68,69.46,16.72,69.66,16.7Z"/><path class="cls-1" d="M82.41,11.87c-2.24,2.28-5.2,5.47-6.53,5.74H75.7a1.38,1.38,0,0,1-1-1.13c0-1,1.22-3.19,2.48-4.94A14.78,14.78,0,0,1,79.4,9a.44.44,0,0,1,.31-.13,1.85,1.85,0,0,1,1.39,1.44c0,.09-.09,0-.29,0s-1.26,1.11-2,2.08c-1.13,1.49-2.24,3.41-2.24,4.06A23.3,23.3,0,0,0,81,12.89c1.15-1.13,2.79-3.05,4-4a.47.47,0,0,1,.31-.11,1.83,1.83,0,0,1,1.37,1.42c0,.09-.06,0-.26-.05a1.39,1.39,0,0,0-.73.51c-.34.36-1,1.15-1.69,2.13a9.52,9.52,0,0,0-1.92,3.67C83.47,16,86.62,13,88,11.72c.13-.11.24.06.17.13-1.92,2.1-5.53,5.8-6.86,5.8a.56.56,0,0,1-.35-.13,1.53,1.53,0,0,1-.8-1.09,4,4,0,0,1,.24-.95A15,15,0,0,1,82.41,11.87Z"/><path class="cls-1" d="M94.63,9.13c-4,0-8.64,7.46-7.4,8s4.41-3,5.89-5.29a2.1,2.1,0,0,1-.24-1.09,2.14,2.14,0,0,1,1-.9.66.66,0,0,1,.51.22,1.93,1.93,0,0,0,1.83,1.13,7.45,7.45,0,0,0,2.55-1,4,4,0,0,1-2.08,1.4,4.54,4.54,0,0,1-1.31.2,2,2,0,0,1-.66-.09c-.6,2.94-5.18,6.13-7.53,6A1.78,1.78,0,0,1,85.53,16c0-3.61,4.85-7.22,8.35-7.22a1.91,1.91,0,0,1,1.35.38c.11.06,0,.06,0,.06S94.78,9.13,94.63,9.13Z"/><path class="cls-1" d="M99.28,8.86a.52.52,0,0,1,.33-.13A1.83,1.83,0,0,1,101,10.17c0,.07-.07,0-.22-.05-.33,0-1.11.87-1.82,1.78-.28.35-1.24,1.72-1.24,1.72,1.93-2.1,6.07-5.11,7.18-4.74.28.11,1.06,1,1.06,1.29,0,2-4.34,7.3-7.37,7.3-.87,0-1.89-.55-1.89-1.28,0-.11.12-.15.12-.09a.88.88,0,0,0,.84.64c2.23,0,6.22-5.73,6.48-7-.33,0-3.89,1.77-7.75,5.82-2.14,3.08-5.27,7.8-5.82,11.07-.11.56-.11,1,.4,1.07-1,.39-2-.42-1.84-1.78.47-3.71,4.9-10.65,8.26-15A18.11,18.11,0,0,1,99.28,8.86Z"/><path class="cls-1" d="M109.39,8.86a.56.56,0,0,1,.34-.13,1.83,1.83,0,0,1,1.35,1.44c0,.07-.07,0-.22-.05-.34,0-1.11.87-1.82,1.78-.29.35-1.24,1.72-1.24,1.72,1.93-2.1,6.07-5.11,7.17-4.74A2.64,2.64,0,0,1,116,10.17c0,2-4.34,7.3-7.38,7.3-.86,0-1.88-.55-1.88-1.28,0-.11.11-.15.11-.09a.89.89,0,0,0,.84.64c2.24,0,6.22-5.73,6.49-7-.33,0-3.9,1.77-7.75,5.82-2.15,3.08-5.27,7.8-5.82,11.07-.11.56-.11,1,.4,1.07-1,.39-2-.42-1.84-1.78.46-3.71,4.89-10.65,8.26-15A19.09,19.09,0,0,1,109.39,8.86Z"/><path class="cls-1" d="M116.15,16.26c0,.26.17.42.66.42,1.62,0,5.67-3.08,7.9-4.94.07,0,.23.07.16.13-1.66,1.55-6.07,5.78-9,5.78a1.78,1.78,0,0,1-1.57-1.39,4,4,0,0,1,.31-1.46A11,11,0,0,1,117.65,11a8.91,8.91,0,0,1,4.76-2.22c.33,0,1.35.51,1.35,1.13,0,1.37-4.25,4.56-6.73,4.63A3.64,3.64,0,0,0,116.15,16.26Zm1.17-2.19c1.92-.23,5.6-3.81,5.73-4.65A13.2,13.2,0,0,0,117.32,14.07Z"/><path class="cls-1" d="M126.88,8.91a.53.53,0,0,1,.31-.11,1.84,1.84,0,0,1,1.38,1.41c0,.09-.07,0-.25,0s-1.11.84-1.77,1.73a28,28,0,0,0-1.84,2.65A28.16,28.16,0,0,1,130,9.79a5.12,5.12,0,0,1,2-1c.24,0,1.15.93,1,1.11a14,14,0,0,0-3.05,3.85c1.06-.09,2.59-1.08,4-2.3,0,0,.16-.05.18,0-.4.53-3.06,3-4.58,3-.4,0-1.07-.78-1.07-1a5.57,5.57,0,0,1,1.29-2.57,17,17,0,0,0-4.59,3.74c-1.13,1.22-2.45,3.17-2,3.39-.64.15-1.17-.53-1.33-1.15a2.15,2.15,0,0,1,.34-1.13,26.31,26.31,0,0,1,2.43-4.05A15.18,15.18,0,0,1,126.88,8.91Z"/><path class="cls-1" d="M131.75,17.63a1.5,1.5,0,0,1-.9-1.06c0-1.29,3.21-6.11,4.62-7.24a.49.49,0,0,1,.33-.14,1.94,1.94,0,0,1,1.4,1.44c0,.09-.11,0-.29,0-.91-.09-3.94,5-4.21,5.87,1.36-.36,4.59-3.44,5.94-4.74.15-.11.26.06.2.13-1.93,2.08-5.45,5.69-6.82,5.8A1.32,1.32,0,0,1,131.75,17.63Zm7.4-11.11c.2.22.33.55.24.55a.64.64,0,0,0-.46,0,6.62,6.62,0,0,0-1.66,1.44c-.31.4-.78-.07-.8-.46a3.25,3.25,0,0,1,1.39-2.26A1.64,1.64,0,0,1,139.15,6.52Z"/><path class="cls-1" d="M142.78,13.27c-.67.66-5,4.38-5.91,4.38a.66.66,0,0,1-.2-.06,2.36,2.36,0,0,1-1-1.49c0-2.41,5.07-7.35,9.15-7.35.84,0,1.95.36,1.95,1.4a1.84,1.84,0,0,1-.42,1c-.05,0-.09,0-.07,0a1.57,1.57,0,0,0,.24-.79.89.89,0,0,0-1.08-.95,8.29,8.29,0,0,0-4.34,2.21c-2.11,1.79-3.77,4.58-3.57,4.69a.15.15,0,0,0,.16,0,33.67,33.67,0,0,0,5-3.45,25.89,25.89,0,0,1,2.39-2.06c.44-.22,1.2,1,1.11,1.26-.11-.22-2.11,2.19-2.77,3.61a2.34,2.34,0,0,0-.22.75c1.39-.39,4.56-3.43,5.93-4.71.11-.11.22.06.16.13-1.93,2.1-5.54,5.8-6.87,5.8a.72.72,0,0,1-.37-.13,1.49,1.49,0,0,1-.73-1,4.13,4.13,0,0,1,.17-.82A9.48,9.48,0,0,1,142.78,13.27Z"/><path class="cls-1" d="M203,13.85l-6.92-6.93L203,0l6.93,6.92Zm-5.82-6.93L203,12.75l5.83-5.83L203,1.1Z"/><path class="cls-1" d="M209.38,13.85l-6.93-6.93L209.38,0l6.92,6.92Zm-5.83-6.93,5.83,5.83,5.82-5.83L209.38,1.1Z"/><path class="cls-1" d="M203,26.74,196,19.82,203,12.89l6.92,6.93Zm-5.83-6.92L203,25.64l5.82-5.82L203,14Z"/><path class="cls-1" d="M209.31,26.74l-6.92-6.92,6.92-6.93,6.92,6.93Zm-5.83-6.92,5.83,5.82,5.83-5.82L209.31,14Z"/><path class="cls-1" d="M7,13.85.06,6.92,7,0l6.92,6.92ZM1.16,6.92,7,12.75l5.82-5.83L7,1.1Z"/><path class="cls-1" d="M13.35,13.85,6.43,6.92,13.35,0l6.92,6.92ZM7.52,6.92l5.83,5.83,5.83-5.83L13.35,1.1Z"/><path class="cls-1" d="M6.92,26.74,0,19.82l6.92-6.93,6.93,6.93ZM1.1,19.82l5.82,5.82,5.83-5.82L6.92,14Z"/><path class="cls-1" d="M13.29,26.74,6.36,19.82l6.93-6.93,6.92,6.93ZM7.46,19.82l5.83,5.82,5.82-5.82L13.29,14Z"/></g></g></svg>