<svg xmlns="http://www.w3.org/2000/svg" viewBox="0 0 216.3 27.82"><defs><style>.cls-1{fill:#007b95;}</style></defs><g id="Livello_2" data-name="Livello 2"><g id="PAGINA_DUE" data-name="PAGINA DUE"><path class="cls-1" d="M77.38,1.67a1.67,1.67,0,0,1,.81-.45c1.25-.06,2.13,1.22,1.71,1-.71-.33-2,1.44-3,2.7a50.54,50.54,0,0,1,11.4.66c.18.05.27.09,0,.07a52.22,52.22,0,0,0-12.13.2c-.82,1-1.55,2.12-2.44,3.43a48,48,0,0,0-4.11,7.15c1,.11,4.62-3.5,5.93-4.69a.1.1,0,0,1,.16.13c-1.09,1.24-4.94,5.27-6.27,5.76a.78.78,0,0,1-.71-.09,2.44,2.44,0,0,1-.8-.89.57.57,0,0,1-.06-.33c0-.66,1-2.83,3.72-7,.59-.91,1.24-1.88,2.06-3-2.11.42-3.41,1.49-2.84,1.82A1.36,1.36,0,0,1,69.65,7c-.09-1,2.35-1.62,4.83-1.9A19.78,19.78,0,0,1,77.38,1.67Z"/><path class="cls-1" d="M79.68,13.27c-.67.66-5,4.38-5.91,4.38a.66.66,0,0,1-.2-.06,2.36,2.36,0,0,1-1-1.49c0-2.41,5.07-7.35,9.15-7.35.84,0,2,.36,2,1.4a1.78,1.78,0,0,1-.43,1s-.08,0-.06,0a1.57,1.57,0,0,0,.24-.79.89.89,0,0,0-1.08-.95A8.29,8.29,0,0,0,78,11.63c-2.11,1.79-3.77,4.58-3.57,4.69a.15.15,0,0,0,.16,0,33.67,33.67,0,0,0,5-3.45A25.89,25.89,0,0,1,82,10.81c.44-.22,1.2,1,1.11,1.26-.11-.22-2.11,2.19-2.77,3.61a2.34,2.34,0,0,0-.22.75C81.49,16,84.66,13,86,11.72c.11-.11.22.06.16.13-1.93,2.1-5.54,5.8-6.87,5.8a.72.72,0,0,1-.37-.13,1.49,1.49,0,0,1-.73-1,4.13,4.13,0,0,1,.17-.82A9.48,9.48,0,0,1,79.68,13.27Z"/><path class="cls-1" d="M85.68,11.54a74,74,0,0,1,4.51-6.71A19.65,19.65,0,0,1,93,1.67a1.61,1.61,0,0,1,.84-.4c1.29,0,2.13,1.3,1.73,1.06-.6-.29-1.44.55-2.74,2.06-.25.29-1.33,1.68-1.33,1.68-1.33,1.68-3,4.21-4.16,6.09,1.74-1.86,4.4-3.92,5.49-3.92.48,0,1.06.93,1.06,1.4,0,1.64-4.52,4.49-7,4.27,1,2.46,3.88,5.85,6.78,5.85A3.75,3.75,0,0,0,96,19c.07-.07.24-.05.13.06a4.28,4.28,0,0,1-3,1.27c-2.86,0-5.85-2.75-7.35-5.34-.53,1-1.75,2.7-.75,2.81a.79.79,0,0,1-.73-.11,2.58,2.58,0,0,1-.78-.88,4.4,4.4,0,0,1,.67-2.35c.19-.44.44-.89.66-1.33a1.71,1.71,0,0,1-.07-.93A1.28,1.28,0,0,1,85.68,11.54Zm1,1.66a1.39,1.39,0,0,0,.14.44c2-.26,4.49-3.12,5.16-4.45C90.46,9.57,86.92,12.89,86.69,13.2Z"/><path class="cls-1" d="M93.27,16.26c0,.26.18.42.67.42,1.61,0,5.66-3.08,7.9-4.94.06,0,.22.07.15.13-1.66,1.55-6.06,5.78-9,5.78a1.8,1.8,0,0,1-1.57-1.39,4,4,0,0,1,.31-1.46A10.88,10.88,0,0,1,94.78,11a8.85,8.85,0,0,1,4.76-2.22c.33,0,1.35.51,1.35,1.13,0,1.37-4.25,4.56-6.73,4.63A3.75,3.75,0,0,0,93.27,16.26Zm1.17-2.19c1.93-.23,5.61-3.81,5.74-4.65A13.17,13.17,0,0,0,94.44,14.07Z"/><path class="cls-1" d="M111.51,13.27c-.66.66-5,4.38-5.91,4.38a.89.89,0,0,1-.2-.06,2.35,2.35,0,0,1-1-1.49c0-2.41,5.07-7.35,9.14-7.35.84,0,2,.36,2,1.4a1.84,1.84,0,0,1-.42,1s-.09,0-.07,0a1.57,1.57,0,0,0,.25-.79.89.89,0,0,0-1.09-.95,8.32,8.32,0,0,0-4.34,2.21c-2.1,1.79-3.76,4.58-3.56,4.69a.14.14,0,0,0,.15,0,33.67,33.67,0,0,0,5-3.45,24.79,24.79,0,0,1,2.4-2.06c.44-.22,1.19,1,1.1,1.26-.11-.22-2.1,2.19-2.77,3.61a2.34,2.34,0,0,0-.22.75c1.4-.39,4.56-3.43,5.94-4.71.11-.11.22.06.15.13-1.92,2.1-5.53,5.8-6.86,5.8a.78.78,0,0,1-.38-.13,1.49,1.49,0,0,1-.73-1,3.62,3.62,0,0,1,.18-.82A9.16,9.16,0,0,1,111.51,13.27Z"/><path class="cls-1" d="M123.33,9.84a.53.53,0,0,1,.31-.11,2,2,0,0,1,1.53,1.41c0,.07-.06,0-.29,0s-.81.53-1.66,1.86a8.7,8.7,0,0,0-1.35,3.28c2.79-1.71,6.29-5.78,8.37-9.08.13-.18.18-.18.07,0-1.66,4.3-8,10.45-8.92,10.45-.56,0-1.11-.86-1.13-1A8.43,8.43,0,0,1,121.32,13a41.36,41.36,0,0,1-3.43,3.63,5.6,5.6,0,0,1-1.57,1.13c-.42,0-1-.86-1-1,0-1.15,1.1-3.65,2.34-5.51a8.24,8.24,0,0,1,1.62-2,.46.46,0,0,1,.31-.14,2,2,0,0,1,1.51,1.44c0,.07,0,0-.25,0s-.46.2-.77.55c-.89,1-2.81,4-3,5.27a22.21,22.21,0,0,0,4.56-4.21A12.34,12.34,0,0,1,123.33,9.84Z"/><path class="cls-1" d="M132.92,13.27c-.66.66-5,4.38-5.91,4.38a.66.66,0,0,1-.2-.06,2.35,2.35,0,0,1-1-1.49c0-2.41,5.06-7.35,9.14-7.35.84,0,2,.36,2,1.4a1.84,1.84,0,0,1-.42,1s-.09,0-.07,0a1.57,1.57,0,0,0,.24-.79.89.89,0,0,0-1.08-.95,8.32,8.32,0,0,0-4.34,2.21c-2.1,1.79-3.76,4.58-3.57,4.69a.15.15,0,0,0,.16,0,33.67,33.67,0,0,0,5-3.45,25.89,25.89,0,0,1,2.39-2.06c.45-.22,1.2,1,1.11,1.26-.11-.22-2.1,2.19-2.77,3.61a2.34,2.34,0,0,0-.22.75c1.4-.39,4.56-3.43,5.93-4.71a.1.1,0,0,1,.16.13c-1.93,2.1-5.54,5.8-6.86,5.8a.72.72,0,0,1-.38-.13,1.49,1.49,0,0,1-.73-1,3.62,3.62,0,0,1,.18-.82A9.16,9.16,0,0,1,132.92,13.27Z"/><path class="cls-1" d="M144.76,14a105.85,105.85,0,0,0-6.55,10.92c1.75-2.42,5-5.36,5.6-5.56.11,0,.11.13.11.13-3.16,2.53-6.09,7.18-6.33,8.24a.37.37,0,0,1-.24.06c-.89.09-1.22-1.12-1.15-1.52a10.71,10.71,0,0,1,.93-2.57c1.15-2.53,4.16-8.39,7.28-12-2.24,2.28-5.36,5.6-6.69,5.87h-.17a1.37,1.37,0,0,1-1-1.13c0-1,1.21-3.19,2.48-4.94A13.58,13.58,0,0,1,141.2,9a.46.46,0,0,1,.31-.14,1.84,1.84,0,0,1,1.37,1.44c0,.09-.06,0-.24,0-.36,0-1.26,1-2,2-1.13,1.46-2.21,3.41-2.21,4.06a22.54,22.54,0,0,0,4.36-3.46c1.17-1.13,2.9-3,4.12-4a.45.45,0,0,1,.33-.13,1.91,1.91,0,0,1,1.38,1.44c0,.09-.09,0-.25,0s-.46.17-.77.5C146.65,11.63,145.74,12.82,144.76,14Z"/><path class="cls-1" d="M203,13.85l-6.92-6.93L203,0l6.93,6.92Zm-5.82-6.93L203,12.75l5.83-5.83L203,1.1Z"/><path class="cls-1" d="M209.38,13.85l-6.93-6.93L209.38,0l6.92,6.92Zm-5.83-6.93,5.83,5.83,5.82-5.83L209.38,1.1Z"/><path class="cls-1" d="M203,26.74,196,19.82,203,12.89l6.92,6.93Zm-5.83-6.92L203,25.64l5.82-5.82L203,14Z"/><path class="cls-1" d="M209.31,26.74l-6.92-6.92,6.92-6.93,6.92,6.93Zm-5.83-6.92,5.83,5.82,5.83-5.82L209.31,14Z"/><path class="cls-1" d="M7,13.85.06,6.92,7,0l6.92,6.92ZM1.16,6.92,7,12.75l5.82-5.83L7,1.1Z"/><path class="cls-1" d="M13.35,13.85,6.43,6.92,13.35,0l6.92,6.92ZM7.52,6.92l5.83,5.83,5.83-5.83L13.35,1.1Z"/><path class="cls-1" d="M6.92,26.74,0,19.82l6.92-6.93,6.93,6.93ZM1.1,19.82l5.82,5.82,5.83-5.82L6.92,14Z"/><path class="cls-1" d="M13.29,26.74,6.36,19.82l6.93-6.93,6.92,6.93ZM7.46,19.82l5.83,5.82,5.82-5.82L13.29,14Z"/></g></g></svg>