<svg xmlns="http://www.w3.org/2000/svg" viewBox="0 0 216.3 26.74"><defs><style>.cls-1{fill:#007b95;}</style></defs><g id="Livello_2" data-name="Livello 2"><g id="PAGINA_3" data-name="PAGINA 3"><path class="cls-1" d="M7,13.85.06,6.92,7,0l6.92,6.92ZM1.16,6.92,7,12.75l5.82-5.83L7,1.1Z"/><path class="cls-1" d="M13.35,13.85,6.43,6.92,13.35,0l6.92,6.92ZM7.52,6.92l5.83,5.83,5.83-5.83L13.35,1.1Z"/><path class="cls-1" d="M6.92,26.74,0,19.82l6.92-6.93,6.93,6.93ZM1.1,19.82l5.82,5.82,5.83-5.82L6.92,14Z"/><path class="cls-1" d="M13.29,26.74,6.36,19.82l6.93-6.93,6.92,6.93ZM7.46,19.82l5.83,5.82,5.82-5.82L13.29,14Z"/><path class="cls-1" d="M203,13.85l-6.92-6.93L203,0l6.93,6.92Zm-5.82-6.93L203,12.75l5.83-5.83L203,1.1Z"/><path class="cls-1" d="M209.38,13.85l-6.93-6.93L209.38,0l6.92,6.92Zm-5.83-6.93,5.83,5.83,5.82-5.83L209.38,1.1Z"/><path class="cls-1" d="M203,26.74,196,19.82,203,12.89l6.92,6.93Zm-5.83-6.92L203,25.64l5.82-5.82L203,14Z"/><path class="cls-1" d="M209.31,26.74l-6.92-6.92,6.92-6.93,6.92,6.93Zm-5.83-6.92,5.83,5.82,5.83-5.82L209.31,14Z"/><path class="cls-1" d="M48.2,1.67A1.65,1.65,0,0,1,49,1.22c1.24-.06,2.12,1.22,1.7,1-.7-.33-2,1.44-3,2.7a50.66,50.66,0,0,1,11.41.66c.17.05.26.09,0,.07A52.29,52.29,0,0,0,47,5.83c-.82,1-1.55,2.12-2.43,3.43a47.39,47.39,0,0,0-4.12,7.15c.95.11,4.63-3.5,5.93-4.69.14-.11.23.06.16.13-1.09,1.24-4.94,5.27-6.27,5.76a.79.79,0,0,1-.71-.09,2.42,2.42,0,0,1-.79-.89.52.52,0,0,1-.07-.33c0-.66,1-2.83,3.72-7,.6-.91,1.24-1.88,2.06-3-2.1.42-3.41,1.49-2.83,1.82A1.36,1.36,0,0,1,40.47,7c-.09-1,2.35-1.62,4.83-1.9A20.81,20.81,0,0,1,48.2,1.67Z"/><path class="cls-1" d="M53,9.13c-4,0-8.64,7.46-7.4,8s4.41-3,5.89-5.29a2.1,2.1,0,0,1-.24-1.09,2.1,2.1,0,0,1,1-.9.62.62,0,0,1,.5.22,2,2,0,0,0,1.84,1.13,7.55,7.55,0,0,0,2.55-1,4,4,0,0,1-2.08,1.4,4.59,4.59,0,0,1-1.31.2,2,2,0,0,1-.66-.09c-.6,2.94-5.18,6.13-7.53,6A1.78,1.78,0,0,1,43.93,16c0-3.61,4.84-7.22,8.34-7.22a1.88,1.88,0,0,1,1.35.38c.11.06.05.06,0,.06S53.18,9.13,53,9.13Z"/><path class="cls-1" d="M59.84,16.46c1.4-.38,4.56-3.41,6-4.74a.11.11,0,0,1,.18.13c-1.93,2.1-5.54,5.76-6.86,5.76a1,1,0,0,1-.69-.47,1.51,1.51,0,0,1-.4-.86c0-1.26,2.57-5,3.72-6a28.39,28.39,0,0,0-6.71,5.27,11.57,11.57,0,0,0-.8.93c-.59.71-.75,1.3-.42,1.46-.66.15-1.19-.55-1.37-1.2A3.71,3.71,0,0,1,53.09,15a29.07,29.07,0,0,1,2.1-3.36,15.69,15.69,0,0,1,2.35-2.75.42.42,0,0,1,.29-.11,1.82,1.82,0,0,1,1.39,1.42c0,.09-.08,0-.26-.05s-1.11.91-1.77,1.78a41.23,41.23,0,0,0-2.53,3.63,9.2,9.2,0,0,1,1.13-1.24c2.48-2.44,6.38-5.43,7.13-5.43.53,0,1.24,1.2.95,1.44C63.32,10.74,59.89,15.42,59.84,16.46Z"/><path class="cls-1" d="M70.18,16.46c1.4-.38,4.56-3.41,6-4.74a.11.11,0,0,1,.18.13c-1.93,2.1-5.54,5.76-6.87,5.76a1,1,0,0,1-.68-.47,1.45,1.45,0,0,1-.4-.86c0-1.26,2.57-5,3.72-6a28.39,28.39,0,0,0-6.71,5.27,11.57,11.57,0,0,0-.8.93c-.6.71-.75,1.3-.42,1.46-.66.15-1.19-.55-1.37-1.2A3.58,3.58,0,0,1,63.43,15a29.07,29.07,0,0,1,2.1-3.36,15.28,15.28,0,0,1,2.35-2.75.42.42,0,0,1,.29-.11,1.82,1.82,0,0,1,1.39,1.42c0,.09-.09,0-.26-.05s-1.11.91-1.77,1.78A39.13,39.13,0,0,0,65,15.53a8.58,8.58,0,0,1,1.13-1.24c2.48-2.44,6.38-5.43,7.13-5.43.53,0,1.24,1.2.95,1.44C73.66,10.74,70.23,15.42,70.18,16.46Z"/><path class="cls-1" d="M82.49,9.13c-4,0-8.63,7.46-7.39,8s4.4-3,5.88-5.29a2.2,2.2,0,0,1-.24-1.09,2.14,2.14,0,0,1,1-.9.66.66,0,0,1,.51.22,1.94,1.94,0,0,0,1.84,1.13,7.46,7.46,0,0,0,2.54-1,4,4,0,0,1-2.08,1.4,4.48,4.48,0,0,1-1.3.2,2.05,2.05,0,0,1-.67-.09c-.6,2.94-5.18,6.13-7.53,6A1.78,1.78,0,0,1,73.39,16c0-3.61,4.85-7.22,8.35-7.22a1.91,1.91,0,0,1,1.35.38c.11.06,0,.06,0,.06S82.65,9.13,82.49,9.13Z"/><path class="cls-1" d="M88.31,17.63a1.52,1.52,0,0,1-.91-1.06c0-1.29,3.21-6.11,4.63-7.24a.47.47,0,0,1,.33-.14,1.94,1.94,0,0,1,1.4,1.44c0,.09-.11,0-.29,0-.91-.09-3.94,5-4.21,5.87,1.35-.36,4.59-3.44,5.94-4.74.15-.11.26.06.2.13-1.93,2.08-5.45,5.69-6.82,5.8A1.32,1.32,0,0,1,88.31,17.63Zm7.4-11.11c.2.22.33.55.24.55a.67.67,0,0,0-.47,0,7,7,0,0,0-1.66,1.44c-.31.4-.77-.07-.79-.46a3.25,3.25,0,0,1,1.39-2.26A1.64,1.64,0,0,1,95.71,6.52Z"/><path class="cls-1" d="M99.89,16.46c1.4-.38,4.56-3.41,6-4.74a.11.11,0,0,1,.18.13c-1.93,2.1-5.54,5.76-6.87,5.76a1,1,0,0,1-.68-.47,1.45,1.45,0,0,1-.4-.86c0-1.26,2.57-5,3.72-6a28.39,28.39,0,0,0-6.71,5.27,9.85,9.85,0,0,0-.8.93c-.6.71-.75,1.3-.42,1.46-.66.15-1.19-.55-1.37-1.2A3.46,3.46,0,0,1,93.14,15a29.07,29.07,0,0,1,2.1-3.36,15.28,15.28,0,0,1,2.35-2.75.42.42,0,0,1,.29-.11,1.82,1.82,0,0,1,1.39,1.42c0,.09-.09,0-.27-.05s-1.1.91-1.77,1.78a40.62,40.62,0,0,0-2.52,3.63,8,8,0,0,1,1.13-1.24c2.48-2.44,6.38-5.43,7.13-5.43.53,0,1.24,1.2,1,1.44C103.37,10.74,99.93,15.42,99.89,16.46Z"/><path class="cls-1" d="M110.29,16.26c0,.26.18.42.67.42,1.61,0,5.67-3.08,7.9-4.94.07,0,.22.07.16.13-1.66,1.55-6.07,5.78-9,5.78a1.8,1.8,0,0,1-1.58-1.39,4.24,4.24,0,0,1,.31-1.46A11,11,0,0,1,111.8,11a8.91,8.91,0,0,1,4.76-2.22c.33,0,1.35.51,1.35,1.13,0,1.37-4.25,4.56-6.73,4.63A3.75,3.75,0,0,0,110.29,16.26Zm1.18-2.19c1.92-.23,5.6-3.81,5.73-4.65A13.14,13.14,0,0,0,111.47,14.07Z"/><path class="cls-1" d="M119.42,12.69c-.09.38.44.73.66.93a19.71,19.71,0,0,1,6.66-2.48c.05,0,.14,0,.14.11.2.07-4.19,1.22-6.6,2.66.29.22.84.86.77,1.33-.31,1.44-3.23,2.61-4.67,2.61-.49,0-.73-.4-.84-.88.07-1,3.32-2.82,4.1-3.13-.25-.31-1.55-1.1-1.35-2.08.35-1.68,3.54-3.34,5.49-3.34.62,0,.9,1,.84,1.66a3.82,3.82,0,0,1-2,1.64s-.06-.09,0-.09a7.25,7.25,0,0,0,1.59-2C123.14,9.55,119.7,11.65,119.42,12.69Zm-3.3,4c.86-.24,3.6-1.66,3.6-2.5A21.34,21.34,0,0,0,116.12,16.72Z"/><path class="cls-1" d="M125,16.7c2-.22,5.76-3.21,7.9-5,.07,0,.22,0,.16.11-1.91,1.79-6.18,5.8-8.93,5.8a1.79,1.79,0,0,1-1.61-1.37,2,2,0,0,1,0-.67,8.51,8.51,0,0,1,2.46-3.91c1.82-1.8,4.05-2.95,5.62-2.95A1.69,1.69,0,0,1,132,9.84c0,.84-1.09,1.66-1.82,2.21,0,0-.16,0-.11-.07.35-.35,1.26-2.1,1.09-2.25-2.37,0-6.71,5-6.71,6.59C124.4,16.68,124.84,16.72,125,16.7Z"/><path class="cls-1" d="M137.92,3.68a12.58,12.58,0,0,1,1.84-2,1.65,1.65,0,0,1,.82-.45c1.24-.06,2.13,1.22,1.71,1-.78-.36-2.22,1.72-3.19,2.92s-1.86,2.52-3,4.14A47.39,47.39,0,0,0,132,16.41c1,.11,4.63-3.5,5.94-4.69a.1.1,0,1,1,.15.13c-1.08,1.24-4.94,5.27-6.27,5.76a.76.76,0,0,1-.7-.09,2.35,2.35,0,0,1-.8-.89.52.52,0,0,1-.07-.33c0-.66,1-2.81,3.72-7C135.35,7.11,136.77,5.19,137.92,3.68Z"/><path class="cls-1" d="M143.13,11.87c-2.24,2.28-5.21,5.47-6.54,5.74h-.17a1.37,1.37,0,0,1-1-1.13c0-1,1.21-3.19,2.48-4.94A15.23,15.23,0,0,1,140.11,9a.46.46,0,0,1,.31-.13,1.85,1.85,0,0,1,1.4,1.44c0,.09-.09,0-.29,0s-1.26,1.11-2,2.08c-1.13,1.49-2.24,3.41-2.24,4.06a23.25,23.25,0,0,0,4.38-3.46,57.15,57.15,0,0,1,4.06-4,.47.47,0,0,1,.31-.11,1.83,1.83,0,0,1,1.37,1.42c0,.09-.07,0-.27-.05a1.46,1.46,0,0,0-.73.51c-.33.36-1,1.15-1.68,2.13a9.44,9.44,0,0,0-1.93,3.67c1.4-.42,4.54-3.43,5.89-4.71.13-.11.25.06.18.13-1.93,2.1-5.54,5.8-6.86,5.8a.59.59,0,0,1-.36-.13,1.55,1.55,0,0,1-.8-1.09,4.08,4.08,0,0,1,.25-.95A15,15,0,0,1,143.13,11.87Z"/><path class="cls-1" d="M149.3,12.69c-.09.38.44.73.67.93a19.64,19.64,0,0,1,6.66-2.48s.13,0,.13.11c.2.07-4.18,1.22-6.6,2.66.29.22.85.86.78,1.33-.31,1.44-3.23,2.61-4.67,2.61-.49,0-.73-.4-.84-.88.06-1,3.32-2.82,4.09-3.13-.24-.31-1.55-1.1-1.35-2.08.36-1.68,3.55-3.34,5.49-3.34.62,0,.91,1,.84,1.66a3.79,3.79,0,0,1-2,1.64s-.07-.09,0-.09a7.63,7.63,0,0,0,1.59-2C153,9.55,149.59,11.65,149.3,12.69Zm-3.3,4c.87-.24,3.61-1.66,3.61-2.5A21.07,21.07,0,0,0,146,16.72Z"/><path class="cls-1" d="M153.29,17.63a1.49,1.49,0,0,1-.91-1.06c0-1.29,3.21-6.11,4.62-7.24a.51.51,0,0,1,.34-.14,1.92,1.92,0,0,1,1.39,1.44c0,.09-.11,0-.29,0-.9-.09-3.94,5-4.2,5.87,1.35-.36,4.58-3.44,5.93-4.74.16-.11.27.06.2.13-1.93,2.08-5.45,5.69-6.82,5.8A1.23,1.23,0,0,1,153.29,17.63Zm7.39-11.11c.2.22.33.55.24.55a.64.64,0,0,0-.46,0,6.62,6.62,0,0,0-1.66,1.44c-.31.4-.78-.07-.8-.46a3.23,3.23,0,0,1,1.4-2.26A1.64,1.64,0,0,1,160.68,6.52Z"/><path class="cls-1" d="M159.64,12.4A11.7,11.7,0,0,1,161.83,9a.45.45,0,0,1,.29-.13c.53,0,1.37.84,1.39,1.44,0,.06,0,0-.22,0-.42,0-1.1,1.09-1.88,2.48A14.16,14.16,0,0,0,160.13,16c2-1.42,6.31-6,8.26-8.17.15-.18.26-.2.13,0-2.26,4-8.62,9.79-9.3,9.79-.44,0-.95-.69-.95-.87A11.75,11.75,0,0,1,159.64,12.4Z"/><path class="cls-1" d="M171.24,13.27c-.66.66-5,4.38-5.91,4.38a.66.66,0,0,1-.2-.06,2.36,2.36,0,0,1-1-1.49c0-2.41,5.07-7.35,9.15-7.35.84,0,1.95.36,1.95,1.4a1.84,1.84,0,0,1-.42,1c-.05,0-.09,0-.07,0a1.57,1.57,0,0,0,.24-.79.89.89,0,0,0-1.08-.95,8.32,8.32,0,0,0-4.34,2.21c-2.1,1.79-3.77,4.58-3.57,4.69a.15.15,0,0,0,.16,0,33.67,33.67,0,0,0,5-3.45,25.89,25.89,0,0,1,2.39-2.06c.44-.22,1.2,1,1.11,1.26-.11-.22-2.1,2.19-2.77,3.61a2.34,2.34,0,0,0-.22.75c1.39-.39,4.56-3.43,5.93-4.71.12-.11.22.06.16.13-1.93,2.1-5.54,5.8-6.86,5.8a.75.75,0,0,1-.38-.13,1.49,1.49,0,0,1-.73-1,3.62,3.62,0,0,1,.18-.82A9.16,9.16,0,0,1,171.24,13.27Z"/></g></g></svg>